<svg width="128" height="128" viewBox="0 0 128 128" xmlns="http://www.w3.org/2000/svg">
  <defs>
    <linearGradient id="gradient" x1="0%" y1="0%" x2="100%" y2="100%">
      <stop offset="0%" style="stop-color:#667eea;stop-opacity:1" />
      <stop offset="100%" style="stop-color:#764ba2;stop-opacity:1" />
    </linearGradient>
  </defs>
  
  <!-- Background circle -->
  <circle cx="64" cy="64" r="60" fill="url(#gradient)" stroke="#ffffff" stroke-width="4"/>
  
  <!-- AI Brain icon -->
  <g transform="translate(32, 32)">
    <!-- Brain outline -->
    <path d="M32 8C40 8 48 16 48 24C52 24 56 28 56 32C56 36 52 40 48 40C48 48 40 56 32 56C24 56 16 48 16 40C12 40 8 36 8 32C8 28 12 24 16 24C16 16 24 8 32 8Z" 
          fill="#ffffff" opacity="0.9"/>
    
    <!-- Neural connections -->
    <circle cx="20" cy="24" r="2" fill="#667eea"/>
    <circle cx="32" cy="20" r="2" fill="#667eea"/>
    <circle cx="44" cy="24" r="2" fill="#667eea"/>
    <circle cx="24" cy="36" r="2" fill="#667eea"/>
    <circle cx="40" cy="36" r="2" fill="#667eea"/>
    <circle cx="32" cy="44" r="2" fill="#667eea"/>
    
    <!-- Connection lines -->
    <line x1="20" y1="24" x2="32" y2="20" stroke="#764ba2" stroke-width="1.5" opacity="0.7"/>
    <line x1="32" y1="20" x2="44" y2="24" stroke="#764ba2" stroke-width="1.5" opacity="0.7"/>
    <line x1="20" y1="24" x2="24" y2="36" stroke="#764ba2" stroke-width="1.5" opacity="0.7"/>
    <line x1="44" y1="24" x2="40" y2="36" stroke="#764ba2" stroke-width="1.5" opacity="0.7"/>
    <line x1="24" y1="36" x2="32" y2="44" stroke="#764ba2" stroke-width="1.5" opacity="0.7"/>
    <line x1="40" y1="36" x2="32" y2="44" stroke="#764ba2" stroke-width="1.5" opacity="0.7"/>
  </g>
  
  <!-- Fox ears -->
  <polygon points="45,25 55,15 65,25" fill="#ff6b35" stroke="#ffffff" stroke-width="2"/>
  <polygon points="63,25 73,15 83,25" fill="#ff6b35" stroke="#ffffff" stroke-width="2"/>
</svg>
